<?xml version="1.0" encoding="UTF-8"?>
<svg width="545px" height="545px" viewBox="0 0 545 545" version="1.1" xmlns="http://www.w3.org/2000/svg" xmlns:xlink="http://www.w3.org/1999/xlink">
    <!-- Generator: Sketch 55.2 (78181) - https://sketchapp.com -->
    <title>Icon</title>
    <desc>Created with Sketch.</desc>
    <g id="Icon" stroke="none" stroke-width="1" fill="none" fill-rule="evenodd">
        <path d="M120,0 L425,0 C491.27417,0 545,53.72583 545,120 L545,425 C545,491.27417 491.27417,545 425,545 L120,545 C53.72583,545 0,491.27417 0,425 L0,120 C0,53.72583 53.72583,0 120,0 Z M144,124 C132.954305,124 124,132.954305 124,144 L124,402 C124,413.045695 132.954305,422 144,422 L402,422 C413.045695,422 422,413.045695 422,402 L422,144 C422,132.954305 413.045695,124 402,124 L144,124 Z" id="Base" fill="#FF4342" fill-rule="nonzero"></path>
        <path d="M347.648421,393 C335.340777,393 324.53993,385.206976 320.770467,373.607459 L307.06189,331.844846 L238.484375,331.844846 L225.747349,373.226612 C221.902695,385.05167 211.019731,392.967356 198.648769,392.967356 C195.678709,392.967356 192.728436,392.49748 189.880068,391.573554 C175.093087,387.134953 166.698365,371.221477 171.228646,356.120144 L229.112164,172.79614 C232.870744,161.134302 243.935751,153 256.022766,153 L286.801768,153 C298.957049,153 310.021067,160.995812 313.706434,172.444969 L374.580789,355.700718 C379.448442,370.683345 371.388123,386.766966 356.622909,391.572565 C353.703306,392.520231 350.684768,393 347.648421,393 L347.648421,393 Z" id="Path" fill="#FF4342" fill-rule="nonzero"></path>
    </g>
</svg>